<svg xmlns="http://www.w3.org/2000/svg" id="Capa_1" height="512" viewBox="0 0 512 512" width="512"><g id="XMLID_731_"><g id="XMLID_407_"><path id="XMLID_497_" d="m507.172 23.575c-48.602-31.365-111.41-31.365-160.012 0-42.013 27.114-96.307 27.115-138.322 0-44.818-28.924-101.711-31.153-148.412-6.729-5.411-10.021-16.011-16.846-28.176-16.846-17.645 0-32 14.355-32 32v470c0 5.523 4.477 10 10 10h44c5.523 0 10-4.477 10-10v-90.427c41.325-24.264 93.24-23.334 133.744 2.807 23.998 15.487 51.978 23.543 80.18 23.543 11.897 0 23.835-1.434 35.529-4.348 5.359-1.335 8.62-6.763 7.285-12.122-1.336-5.359-6.766-8.62-12.122-7.285-34.073 8.493-70.531 2.443-100.027-16.593-43.6-28.138-98.635-31.033-144.589-8.686v-39.65c41.325-24.263 93.24-23.334 133.744 2.807 24.301 15.683 52.153 23.524 80.006 23.524s55.705-7.842 80.006-23.524c40.505-26.141 92.419-27.07 133.744-2.807v39.659c-30.951-15.027-66.626-18.907-100.283-10.519-5.359 1.335-8.621 6.762-7.285 12.121 1.335 5.359 6.764 8.623 12.121 7.285 34.07-8.489 70.529-2.442 100.025 16.594 3.077 1.985 6.992 2.131 10.207.379 3.215-1.751 5.216-5.12 5.216-8.781v-374c-.001-3.396-1.725-6.56-4.579-8.402zm-442.922 200.998c41.325-24.263 93.24-23.333 133.744 2.807 24.301 15.683 52.153 23.524 80.006 23.524s55.705-7.841 80.006-23.524c40.505-26.139 92.419-27.069 133.744-2.807v39.672c-45.955-22.351-100.986-19.476-144.589 8.663-42.013 27.116-96.307 27.116-138.322 0-43.602-28.139-98.633-31.014-144.589-8.663zm427.5-22.662c-45.955-22.351-100.986-19.476-144.589 8.663-18.096 11.679-38.471 18.314-59.161 19.933v-42.233c24.898-1.682 48.92-9.62 70.006-23.228 40.505-26.14 92.42-27.069 133.744-2.807zm0-62.333c-45.955-22.351-100.986-19.476-144.589 8.664-17.845 11.517-38.122 18.331-59.161 19.977v-42.278c24.899-1.682 48.919-9.619 70.006-23.228 40.505-26.141 92.419-27.07 133.744-2.807zm-133.744-99.199c40.503-26.139 92.42-27.08 133.744-2.819v39.685c-45.955-22.351-100.986-19.476-144.589 8.663-17.845 11.517-38.122 18.332-59.161 19.977v-42.326c24.472-1.653 48.615-9.375 70.006-23.18zm-160.012 0c21.391 13.805 45.534 21.527 70.006 23.18v52.719.01s0 .006 0 .01v62.314.01s0 .006 0 .01v51.877c-20.69-1.618-41.065-8.254-59.161-19.933-43.602-28.139-98.633-31.014-144.589-8.663v-164.353c41.325-24.26 93.242-23.319 133.744 2.819zm-153.744 451.621h-24v-460c0-6.617 5.383-12 12-12s12 5.383 12 12zm302.911-156.758c-42.014 27.115-96.309 27.114-138.322 0-43.602-28.14-98.633-31.015-144.589-8.663v-39.672c41.325-24.263 93.24-23.333 133.744 2.807 24.301 15.683 52.153 23.524 80.006 23.524s55.705-7.841 80.006-23.524c40.505-26.139 92.419-27.069 133.744-2.807v39.672c-45.955-22.353-100.986-19.477-144.589 8.663z"></path><path id="XMLID_699_" d="m128.83 82.33c2.64 0 5.21-1.06 7.07-2.93 1.87-1.86 2.93-4.43 2.93-7.07 0-2.63-1.06-5.21-2.93-7.07-1.86-1.86-4.43-2.93-7.07-2.93-2.63 0-5.21 1.07-7.07 2.93s-2.93 4.44-2.93 7.07 1.07 5.21 2.93 7.07c1.86 1.87 4.44 2.93 7.07 2.93z"></path><path id="XMLID_700_" d="m203.42 104.31c2.63 0 5.21-1.07 7.07-2.93s2.93-4.44 2.93-7.07-1.07-5.21-2.93-7.07-4.44-2.93-7.07-2.93c-2.64 0-5.21 1.07-7.08 2.93-1.86 1.86-2.92 4.44-2.92 7.07s1.06 5.21 2.92 7.07c1.87 1.86 4.44 2.93 7.08 2.93z"></path><path id="XMLID_703_" d="m128.83 144.67c2.64 0 5.21-1.07 7.07-2.93 1.87-1.86 2.93-4.44 2.93-7.07s-1.06-5.21-2.93-7.08c-1.86-1.86-4.43-2.92-7.07-2.92-2.63 0-5.21 1.06-7.07 2.92-1.86 1.87-2.93 4.45-2.93 7.08s1.07 5.2 2.93 7.07c1.86 1.86 4.44 2.93 7.07 2.93z"></path><path id="XMLID_704_" d="m203.42 166.65c2.63 0 5.21-1.07 7.07-2.93 1.86-1.87 2.93-4.44 2.93-7.07 0-2.64-1.07-5.22-2.93-7.08s-4.44-2.93-7.07-2.93c-2.64 0-5.21 1.07-7.08 2.93-1.86 1.87-2.92 4.44-2.92 7.08 0 2.63 1.06 5.2 2.92 7.07 1.87 1.86 4.45 2.93 7.08 2.93z"></path><path id="XMLID_705_" d="m352.58 395.98c-2.63 0-5.2 1.06-7.07 2.93-1.86 1.86-2.93 4.43-2.93 7.07 0 2.63 1.07 5.21 2.93 7.07s4.44 2.93 7.07 2.93c2.64 0 5.21-1.07 7.08-2.93 1.86-1.86 2.92-4.44 2.92-7.07s-1.06-5.21-2.92-7.07c-1.87-1.87-4.45-2.93-7.08-2.93z"></path></g></g></svg>